<svg xmlns="http://www.w3.org/2000/svg" viewBox="0 0 32 32"><path class="fg_tw" d="M16 0C7.2 0 0 7.2 0 16c0 8.8 7.2 16 16 16s16-7.2 16-16C32 7.2 24.8 0 16 0z" fill="#333"/><path class="bg_tw" d="M18.2 8.9c-1.6 0.6-2.6 2.1-2.5 3.7l0 0.6 -0.6-0.1c-2.3-0.3-4.3-1.3-6.1-3l-0.8-0.8L8 9.9c-0.5 1.4-0.2 2.8 0.8 3.8 0.5 0.5 0.4 0.6-0.5 0.3 -0.3-0.1-0.6-0.2-0.6-0.1 -0.1 0.1 0.2 1.3 0.5 1.7 0.3 0.6 1 1.3 1.7 1.6l0.6 0.3L9.8 17.6c-0.7 0-0.7 0-0.7 0.3 0.3 0.8 1.3 1.7 2.4 2.1l0.8 0.3 -0.7 0.4c-1 0.6-2.2 0.9-3.4 1 -0.6 0-1 0.1-1 0.1 0 0.1 1.6 0.8 2.5 1.1 2.7 0.8 5.9 0.5 8.3-1 1.7-1 3.4-3 4.2-5 0.4-1 0.9-2.9 0.9-3.9 0-0.6 0-0.7 0.8-1.4 0.4-0.4 0.8-0.9 0.9-1 0.1-0.2 0.1-0.2-0.5 0 -1.1 0.4-1.2 0.3-0.7-0.2 0.4-0.4 0.9-1.2 0.9-1.4 0 0-0.2 0-0.4 0.1 -0.2 0.1-0.7 0.3-1.1 0.4l-0.7 0.2L21.5 9.4c-0.3-0.2-0.8-0.5-1.1-0.6C19.8 8.7 18.8 8.7 18.2 8.9z" fill="#FFF"/></svg>