<svg xmlns="http://www.w3.org/2000/svg" viewBox="0 0 32 32"><style>.a{fill:#FFF;}</style><path d="M16 0c-8.8 0-16 7.2-16 16 0 8.8 7.2 16 16 16s16-7.2 16-16C32 7.2 24.8 0 16 0z" fill="#333"/><path d="M18.2 7.2c0 0-4 0-5.4 0 -2.5 0-4.8 1.7-4.8 3.9 0 2.2 1.7 4 4.2 4 0.2 0 0.3 0 0.5-0.1 -0.2 0.3-0.3 0.7-0.3 1 0 0.6 0.3 1.1 0.8 1.5 -0.3 0-0.6 0-1 0 -3.1 0-5.4 2-5.4 4 0 2 2.6 3.3 5.7 3.3 3.5 0 5.5-2 5.5-4 0-1.6-0.5-2.6-1.9-3.6 -0.5-0.4-1.5-1.2-1.5-1.7 0-0.6 0.2-0.9 1.1-1.6 0.9-0.7 1.6-1.6 1.6-2.7 0-1.4-0.6-3.1-1.8-3.1h2L18.2 7.2zM16.4 20.5c0 0.2 0.1 0.4 0.1 0.6 0 1.6-1 2.9-4 2.9 -2.1 0-3.7-1.3-3.7-3 0-1.6 1.9-2.9 4-2.9 0.5 0 1 0.1 1.4 0.2C15.3 19.1 16.2 19.6 16.4 20.5zM13 14.4c-1.4 0-2.8-1.6-3-3.5 -0.2-1.9 0.7-3.3 2.1-3.3 1.4 0 2.8 1.6 3 3.4C15.4 13 14.4 14.5 13 14.4z" class="a"/><polygon points="22.6 14.2 22.6 11.6 20.9 11.6 20.9 14.2 18.2 14.2 18.2 16 20.9 16 20.9 18.6 22.6 18.6 22.6 16 25.3 16 25.3 14.2 " class="a"/></svg>